<?xml version="1.0" encoding="utf-8"?>
<!-- Generator: Adobe Illustrator 16.0.0, SVG Export Plug-In . SVG Version: 6.00 Build 0)  -->
<!DOCTYPE svg PUBLIC "-//W3C//DTD SVG 1.1//EN" "http://www.w3.org/Graphics/SVG/1.1/DTD/svg11.dtd">
<svg version="1.1" id="Layer_1" xmlns="http://www.w3.org/2000/svg" xmlns:xlink="http://www.w3.org/1999/xlink" x="0px" y="0px"
	 width="450px" height="450px" viewBox="0 0 450 450" enable-background="new 0 0 450 450" xml:space="preserve">
<g>
	<path fill="#00B8F2" stroke="#00B8F2" stroke-width="15" stroke-miterlimit="10" d="M407.25,44.101L407.25,44.101v320.512
		L225,410.4l-182.25-44.55V44.101l178.2,44.55H225h4.051L407.25,44.101 M407.25,19.351c-1.012,0-3.037,0-4.05,0L225,63.9
		L46.8,20.588c-1.013,0-3.038,0-4.05,0c-11.137,0-20.25,11.138-20.25,24.75v320.513c0,12.375,7.088,22.274,16.2,24.75L225,435.15
		l186.301-45.788c9.111-2.475,16.199-12.375,16.199-24.75V44.101C427.5,30.487,418.388,19.351,407.25,19.351L407.25,19.351z"/>
</g>
<line fill="#00B8F2" stroke="#00B8F2" stroke-width="28" stroke-linecap="round" stroke-miterlimit="10" x1="225" y1="258.75" x2="225" y2="415.125"/>
<line fill="#00B8F2" stroke="#00B8F2" stroke-width="28" stroke-linecap="round" stroke-miterlimit="10" x1="225" y1="78.75" x2="225" y2="213.75"/>
<polyline fill="#00B8F2" stroke="#00B8F2" stroke-width="28" stroke-linecap="round" stroke-miterlimit="10" points="180,303.75 
	225,258.75 270,303.75 "/>
<polyline fill="#00B8F2" stroke="#00B8F2" stroke-width="28" stroke-linecap="round" stroke-miterlimit="10" points="270,168.75 
	225,213.75 180,168.75 "/>
</svg>
