<?xml version="1.0" encoding="utf-8"?>
<!-- Generator: Adobe Illustrator 16.0.0, SVG Export Plug-In . SVG Version: 6.00 Build 0)  -->
<!DOCTYPE svg PUBLIC "-//W3C//DTD SVG 1.1//EN" "http://www.w3.org/Graphics/SVG/1.1/DTD/svg11.dtd">
<svg version="1.1" id="Layer_1" xmlns="http://www.w3.org/2000/svg" xmlns:xlink="http://www.w3.org/1999/xlink" x="0px" y="0px"
	 width="450px" height="450px" viewBox="0 0 450 450" enable-background="new 0 0 450 450" xml:space="preserve">
<circle opacity="0.5" fill="#00B8F2" enable-background="new    " cx="225" cy="225" r="225"/>
<path fill="#C0DFE8" stroke="#C0DFE8" stroke-width="4" stroke-miterlimit="10" d="M307.875,264.375
	c-8.25-1.125-16.125-4.125-22.875-8.25C301.5,244.875,311.25,228,311.25,210c0-32.25-30.375-58.875-67.875-58.875
	S175.5,177.375,175.5,210v0.375l0,0c-21,4.875-36.75,21.75-36.75,41.625c0,12.75,6.375,24.75,17.625,33
	c-4.5,2.625-9.375,4.125-14.625,4.875c-1.875,0.375-3,1.875-3.375,3.375c0,1.875,1.125,3.375,3,3.75
	c4.125,1.125,8.625,1.5,13.125,1.5c7.875,0,15.375-1.875,22.125-4.875c3.75,0.75,7.875,1.125,11.625,1.125
	c20.625,0,38.625-11.25,45.75-26.625c3,0.375,6,0.75,9,0.75c5.25,0,10.875-0.75,16.5-1.875c9.375,4.5,19.875,7.125,30.75,7.125l0,0
	c6,0,12-0.75,18-2.25c1.875-0.375,3-1.875,3-3.75S309.75,264.75,307.875,264.375z M188.25,287.625c-3.75,0-7.5-0.375-11.25-1.5
	c-0.75-0.375-1.875,0-2.625,0.375c-4.125,2.25-8.25,3.375-13.125,4.125c1.5-0.75,3-1.875,4.125-3c1.125-0.75,1.5-1.875,1.5-3.375
	c0-1.125-0.75-2.25-1.875-3c-12-6.75-19.125-17.625-19.125-29.625c0-19.5,18.75-35.625,42-35.625s42,16.125,42,35.625
	S211.5,287.625,188.25,287.625z M262.125,259.875C261.75,259.5,261,259.5,260.25,259.5c-0.375,0-0.75,0-0.75,0
	c-5.25,1.125-10.875,1.875-16.125,1.875c-2.25,0-4.5,0-6.375-0.375l0,0c0.75-3,1.125-6,1.125-9c0-23.625-22.125-43.125-49.5-43.125
	c-1.875,0-3.75,0-5.25,0.375C183.75,181.5,210.75,159,243.75,159c33-0.375,60,22.875,60,51c0,17.25-10.125,33.375-27.375,42.75
	c-1.125,0.75-1.875,1.875-1.875,3s0.375,2.625,1.5,3.375c3.75,3,7.875,5.625,12.375,7.5C279,266.25,269.625,264,262.125,259.875z"/>
</svg>
